<svg version="1.1" viewBox="0 0 15.568 15.568" xmlns="http://www.w3.org/2000/svg">
 <g>
  <path d="m7.7842 1.4068h3.1887c0.7503 0 1.1254 0.18758 1.4068 0.28136 0.3751 0.18757 0.6565 0.28136 0.9378 0.56271 0.2814 0.28136 0.4689 0.56272 0.5627 0.93786 0.0938 0.28135 0.1876 0.65649 0.2814 1.4068v3.1887 3.1887c0 0.7503-0.1876 1.1254-0.2814 1.4068-0.1875 0.3751-0.2813 0.6565-0.5627 0.9378-0.2813 0.2814-0.5627 0.469-0.9378 0.5628-0.2814 0.0937-0.6565 0.1875-1.4068 0.2813h-3.1887-3.1887c-0.75029 0-1.1254-0.1876-1.4068-0.2813-0.37514-0.1876-0.6565-0.2814-0.93786-0.5628-0.28135-0.2813-0.46892-0.5627-0.56271-0.9378-0.09378-0.2814-0.18757-0.6565-0.28136-1.4068v-3.1887-3.1887c0-0.75029 0.18758-1.1254 0.28136-1.4068 0.18757-0.37514 0.28136-0.6565 0.56271-0.93786 0.28136-0.28135 0.56272-0.46892 0.93786-0.56271 0.28135-0.09378 0.65649-0.18757 1.4068-0.28136h3.1887zm0-1.4068h-3.1887c-0.84407 0-1.4068 0.18757-1.8757 0.37514-0.46893 0.18757-0.93785 0.46892-1.4068 0.93785s-0.6565 0.84407-0.93785 1.4068c-0.18757 0.46893-0.28136 1.0316-0.37514 1.8757v3.1887 3.1887c0 0.8441 0.18757 1.4068 0.37514 1.8757 0.18757 0.4689 0.46892 0.9379 0.93785 1.4068s0.84407 0.6565 1.4068 0.9378c0.46893 0.1876 1.0316 0.2814 1.8757 0.3752h3.1887 3.1887c0.844 0 1.4068-0.1876 1.8757-0.3752 0.4689-0.1875 0.9378-0.4689 1.4068-0.9378 0.4689-0.4689 0.6565-0.8441 0.9378-1.4068 0.1876-0.4689 0.2814-1.0316 0.3752-1.8757v-3.1887-3.1887c0-0.84407-0.1876-1.4068-0.3752-1.8757-0.1875-0.46893-0.4689-0.93785-0.9378-1.4068-0.469-0.46893-0.8441-0.6565-1.4068-0.93785-0.4689-0.18757-1.0317-0.28136-1.8757-0.37514h-3.1887z"/>
  <path d="m7.7842 3.7514c-2.2508 0-4.0328 1.7819-4.0328 4.0328 0 2.2509 1.7819 4.0328 4.0328 4.0328 2.2508 0 4.0327-1.7819 4.0327-4.0328 0-2.2508-1.7819-4.0328-4.0327-4.0328zm0 6.6588c-1.4068 0-2.626-1.1254-2.626-2.626 0-1.4068 1.1254-2.626 2.626-2.626 1.4068 0 2.626 1.1254 2.626 2.626 0 1.4068-1.2192 2.626-2.626 2.626z"/>
  <path d="m11.911 4.5955c0.518 0 0.9379-0.41989 0.9379-0.93786 0-0.51796-0.4199-0.93785-0.9379-0.93785-0.5179 0-0.9378 0.41989-0.9378 0.93785 0 0.51797 0.4199 0.93786 0.9378 0.93786z"/>
 </g>
</svg>
