<svg version="1.1" viewBox="0 0 15 17" xmlns="http://www.w3.org/2000/svg">
 <path d="m3.3763 15.006h-3.1887v-10.035h3.1887zm-1.5944-11.442c-1.0316 0-1.7819-0.75029-1.7819-1.7819s0.84407-1.7819 1.7819-1.7819c1.0316 0 1.7819 0.75028 1.7819 1.7819s-0.75028 1.7819-1.7819 1.7819zm13.224 11.442h-3.1887v-5.4395c0-1.5944-0.6565-2.0633-1.5944-2.0633-0.93785 0-1.8757 0.75028-1.8757 2.1571v5.3457h-3.1887v-10.035h3.0011v1.4068c0.28135-0.6565 1.4068-1.6881 3.0012-1.6881 1.7819 0 3.6576 1.0316 3.6576 4.1266v6.1898z" />
</svg>
