<svg width="12.085" height="12.072" version="1.1" viewBox="0 0 12.085 12.072" xmlns="http://www.w3.org/2000/svg">
 <g transform="translate(-.73633 -.26172)">
  <g>
   <path d="m0.83555 5.0212c0 2.5814 2.0788 4.6602 4.6602 4.6602 2.5814 0 4.6602-2.0788 4.6602-4.6602s-2.0788-4.6602-4.6602-4.6602c-2.5814 0-4.6602 2.0788-4.6602 4.6602zm1.1514 0c0-1.946 1.5628-3.5088 3.5088-3.5088s3.5088 1.5628 3.5088 3.5088-1.5628 3.5088-3.5088 3.5088-3.5088-1.5628-3.5088-3.5088z" color="#000000" stroke-width=".2" style="-inkscape-stroke:none"/>
   <path d="m5.4961 0.26172c-2.6351 0-4.7598 2.1247-4.7598 4.7598 1e-8 2.6351 2.1247 4.7598 4.7598 4.7598 2.6351 0 4.7598-2.1247 4.7598-4.7598 0-2.6351-2.1247-4.7598-4.7598-4.7598zm0 0.19922c2.5277 0 4.5605 2.0328 4.5605 4.5605s-2.0328 4.5605-4.5605 4.5605c-2.5277 0-4.5605-2.0328-4.5605-4.5605 0-2.5277 2.0328-4.5605 4.5605-4.5605zm0 0.95117c-1.9996 0-3.6094 1.6098-3.6094 3.6094 1e-7 1.9996 1.6098 3.6094 3.6094 3.6094 1.9996 0 3.6094-1.6098 3.6094-3.6094s-1.6098-3.6094-3.6094-3.6094zm0 0.20117c1.8925 0 3.4082 1.5157 3.4082 3.4082s-1.5157 3.4082-3.4082 3.4082c-1.8925 0-3.4082-1.5157-3.4082-3.4082 0-1.8925 1.5157-3.4082 3.4082-3.4082z" color="#000000" style="-inkscape-stroke:none"/>
   <path d="m11.716 12.074 3e-4 3e-4c0.0575 0.0575 0.1182 0.0989 0.1866 0.1252 0.0679 0.0261 0.1382 0.0354 0.2122 0.0354 0.1638 0 0.3191-0.0809 0.4316-0.1934 0.2359-0.2359 0.2359-0.5944 0-0.8303l-3.7336-3.7336c-0.2359-0.23589-0.59448-0.23589-0.83038 0-0.23584 0.23585-0.23589 0.59432-1.6e-4 0.83022l1.6e-4 1.6e-4z" color="#000000" stroke-width=".2" style="-inkscape-stroke:none"/>
   <path d="m7.9121 7.4062c-0.27166 0.27167-0.27154 0.70092 0 0.97266l3.7344 3.7656c0.06541 0.06541 0.13799 0.11663 0.2207 0.14844 0.08205 0.03154 0.16567 0.04101 0.24805 0.04101 0.19673 0 0.37387-0.09457 0.50195-0.22266 0.27172-0.27172 0.27172-0.69898 0-0.9707l-3.7324-3.7344c-0.27173-0.27172-0.70093-0.27172-0.97266 0zm0.14258 0.14258c0.20007-0.20006 0.48743-0.20006 0.6875 0l3.7344 3.7324c0.20008 0.20008 0.20008 0.48937 0 0.68945-0.09691 0.09691-0.23046 0.16406-0.36133 0.16406-0.06562 0-0.12203-0.0086-0.17578-0.0293-0.05409-0.0208-0.10276-0.05197-0.15234-0.10156l-3.7324-3.7676c-0.19992-0.20006-0.20002-0.48747 0-0.6875z" color="#000000" style="-inkscape-stroke:none"/>
  </g>
 </g>
</svg>
