<svg width="224" height="40" version="1.1" viewBox="0 0 224 40" xmlns="http://www.w3.org/2000/svg">
 <g>
  <path d="m56.966 39.692h-1.3838v-24.439l-3.6314-4.9389-3.6317 4.9389v24.439h-1.3839v-24.893l5.0156-6.8202 5.0152 6.8202v24.893z"/>
  <path d="m3.4903 21.156h2.4486v-0.9179h-4.7104v3.3695h2.2618v-2.4516z"/>
  <path d="m9.9805 21.156h2.4486v-0.9179h-4.7104v3.3695h2.2618v-2.4516z"/>
  <path d="m16.471 21.156h2.4486v-0.9179h-4.7104v3.3695h2.2618v-2.4516z"/>
  <path d="m22.963 21.156h2.4487v-0.9179h-4.7104v3.3695h2.2617v-2.4516z"/>
  <path d="m29.455 21.156h2.4487v-0.9179h-4.7104v3.3695h2.2617v-2.4516z"/>
  <path d="m35.947 21.156h2.4486v-0.9179h-4.7104v3.3695h2.2618v-2.4516z"/>
  <path d="m19.166 0.47078-0.6148-0.35359-0.6275 0.36082-5.1289 2.7757-2e-4 1.9134 5.757-3.116 5.756 3.116v-1.9134l-5.1416-2.7829z"/>
  <path d="m38.999 14.918c-5.6739-5.4677-13.124-8.475-21.018-8.475-6.1972 0-12.155 1.8573-17.23 5.3715l-0.75093 0.5224v2.0545l1.7088-1.1936c4.7924-3.3187 10.419-5.0725 16.272-5.0725 7.5657 0 14.698 2.9236 20.084 8.2327 0.1574 0.1552 0.3696 0.2423 0.5906 0.2424h2.982v23.092h1.6824v-24.775h-4.321z"/>
  <path d="m51.493 17.869h-1.5064v5.7409h1.5064v-5.7409z"/>
  <path d="m54.059 17.869h-1.5064v5.7409h1.5064v-5.7409z"/>
  <path d="m72.156 25.082c1.149 0 2.34 0 3.3399 0.6382 1.1702 0.7445 1.7867 1.8077 1.7867 3.1904 0 1.6597-1.106 2.7654-2.6375 3.1486v0.0425c1.808 0.3612 3.0417 1.7439 3.0417 3.6373 0 1.2764-0.7658 2.4041-1.7868 3.1486-1.0636 0.787-2.4888 0.787-3.744 0.787h-6.5305v-14.593h6.5305zm-3.1269 5.7858h2.3187c0.5957 0 1.2977 0.0425 1.808-0.34 0.4041-0.2983 0.617-0.8302 0.617-1.319 0-0.5319-0.2554-1.0427-0.7232-1.3189-0.4895-0.277-1.3827-0.2132-1.9572-0.2132h-2.0633v3.1911zm0 6.1051h2.3612c0.617 0 1.404 0.0425 1.9359-0.3187 0.4892-0.3195 0.7657-0.9152 0.7657-1.5109 0-0.5525-0.3403-1.127-0.8294-1.4039-0.4895-0.2763-1.1702-0.2763-1.7234-0.2763h-2.51v3.5098z"/>
  <path d="m84.066 27.911v2.9567h5.5307v2.7441h-5.5307v3.2335h7.0196v2.8292h-10.423v-14.593h10.423v2.8291h-7.0196z"/>
  <path d="m97.532 39.675h-3.4036v-14.593h6.1481c1.297 0 2.616 0.0213 3.744 0.7445 1.191 0.787 1.85 2.2121 1.85 3.6373 0 1.659-0.957 3.1911-2.531 3.7655l2.701 6.4452h-3.786l-2.234-5.7645h-2.4885v5.7646zm0-8.2749h1.8721c0.7024 0 1.4674 0.0638 2.0844-0.2982 0.553-0.34 0.851-1.0207 0.851-1.6589 0-0.5745-0.34-1.1915-0.829-1.489-0.575-0.3619-1.5535-0.2769-2.1917-0.2769h-1.7868v3.723z"/>
  <path d="m112.56 31.953 4.573-6.8709h3.276l-3.51 5.2113 4.382 9.3813h-3.765l-2.893-6.3177-2.063 2.9566v3.3611h-3.319v-14.593h3.319v6.8709z"/>
  <path d="m127.26 27.911v2.9567h5.531v2.7441h-5.531v3.2335h7.02v2.8292h-10.424v-14.593h10.424v2.8291h-7.02z"/>
  <path d="m146.45 36.782v2.8929h-9.274v-14.593h3.403v11.7h5.871z"/>
  <path d="m152.37 27.911v2.9567h5.531v2.7441h-5.531v3.2335h7.02v2.8292h-10.423v-14.593h10.423v2.8291h-7.02z"/>
  <path d="m169.15 33.527v6.1477h-3.404v-6.1477l-4.616-8.4449h3.957l2.808 5.552 2.765-5.552h3.063l-4.573 8.4449z"/>
  <path d="m192.83 36.782v2.8929h-9.275v-14.593h3.403v11.7h5.872z"/>
  <path d="m208.21 39.675h-3.68l-0.893-2.9992h-4.723l-0.915 2.9992h-2.999l4.68-14.593h3.957l4.573 14.593zm-5.361-5.6795-1.553-5.127-1.552 5.127h3.105z"/>
  <path d="m217.47 25.082c1.149 0 2.34 0 3.34 0.6382 1.17 0.7445 1.787 1.8077 1.787 3.1904 0 1.6597-1.106 2.7654-2.638 3.1486v0.0425c1.808 0.3612 3.042 1.7439 3.042 3.6373 0 1.2764-0.766 2.4041-1.787 3.1486-1.063 0.787-2.488 0.787-3.744 0.787h-6.531v-14.593h6.531zm-3.127 5.7858h2.319c0.596 0 1.298 0.0425 1.808-0.34 0.404-0.2983 0.617-0.8302 0.617-1.319 0-0.5319-0.255-1.0427-0.723-1.3189-0.49-0.277-1.383-0.2132-1.958-0.2132h-2.063v3.1911zm0 6.1051h2.362c0.617 0 1.404 0.0425 1.936-0.3187 0.488-0.3195 0.765-0.9152 0.765-1.5109 0-0.5525-0.34-1.127-0.83-1.4039-0.489-0.2763-1.169-0.2763-1.723-0.2763h-2.51v3.5098z"/>
 </g>
</svg>
