<svg version="1.1" viewBox="0 0 17.413 11.042" xmlns="http://www.w3.org/2000/svg">
 <path d="m1.274 2.8299e-6c-0.15885-3.32e-4 -0.31637 0.028902-0.46452 0.086208l7.4657 6.3308c0.2693 0.22796 0.60749 0.22781 0.87604 0l7.4521-6.3308c-0.1482-0.057308-0.3057-0.086542-0.4645-0.086208zm-1.2608 1.0883c-0.008819 0.06151-0.013225 0.12358-0.013183 0.18573v8.4941c0 0.1787 0.033772 0.3504 0.09954 0.5044l5.183-4.7249zm17.386 0-5.2557 4.453 5.1693 4.7313c0.0657-0.154 0.0995-0.3257 0.0995-0.5044v-8.4941c-1e-4 -0.06214-0.0045-0.1242-0.0132-0.18573zm-6.231 5.2823-1.1945 1.0152c-0.72438 0.61457-1.7975 0.6134-2.5217 0l-1.1878-1.0088-5.1098 4.6585c0.03881 0.0034 0.07969 0.0065 0.11939 0.0065h14.865c0.042 0 0.0852-0.0028 0.1261-0.0065z" />
</svg>
