<svg version="1.1" viewBox="0 0 15.006 10.504" xmlns="http://www.w3.org/2000/svg">
 <path d="m14.631 1.5944c-0.1876-0.6565-0.6565-1.1254-1.313-1.313-1.1254-0.28136-5.9085-0.28136-5.9085-0.28136s-4.6893 0-5.9085 0.28136c-0.65649 0.18757-1.1254 0.6565-1.313 1.313-0.18757 1.2192-0.18757 3.6576-0.18757 3.6576s3e-6 2.4384 0.28136 3.6576c0.18757 0.65652 0.65649 1.1254 1.313 1.313 1.1254 0.2813 5.9085 0.2813 5.9085 0.2813s4.6893 0 5.9085-0.2813c0.6565-0.1876 1.1254-0.6565 1.313-1.313 0.2814-1.2192 0.2813-3.6576 0.2813-3.6576s0-2.4384-0.3751-3.6576zm-8.6282 5.9085v-4.5017l3.939 2.2508z" />
</svg>
